<svg version="1.1" xmlns="http://www.w3.org/2000/svg" xmlns:xlink="http://www.w3.org/1999/xlink" width="512" height="512" viewBox="0,0,256,256"><g fill="none" fill-rule="nonzero" stroke="none" stroke-width="1" stroke-linecap="butt" stroke-linejoin="miter" stroke-miterlimit="10" stroke-dasharray="" stroke-dashoffset="0" font-family="none" font-weight="none" font-size="none" text-anchor="none" style="mix-blend-mode: normal"><g transform="translate(-0.25,0) scale(0.125,0.125)"><path transform="translate(325,0)" d="M0,0h1405l40,7l25,6l19,6l24,9l25,12l24,14l16,11l16,12l14,12l3,2v2l4,2l18,18l7,8l10,12l12,16l10,15l10,17l12,23l9,21l11,33l9,36v1465l-4,14l-7,26l-9,26l-9,20l-8,16l-10,18l-10,15l-13,18l-12,14l-7,8l-12,13l-4,2l-1,3l-8,7l-13,11l-16,12l-21,14l-23,13l-25,12l-30,11l-30,8l-40,8h-1406l-37,-6l-27,-6l-26,-8l-25,-10l-25,-12l-22,-13l-16,-11l-16,-12l-11,-10l-8,-7l-13,-12l-7,-8l-12,-13l-10,-13l-13,-18l-12,-20l-10,-18l-13,-30l-11,-33l-6,-27l-4,-26l-2,-24v-1369l2,-30l4,-26l6,-26l12,-36l11,-25l14,-26l16,-24l12,-16l12,-14l9,-10l18,-18l11,-9l12,-10l18,-13l20,-12l14,-8l23,-11l26,-10l28,-8l28,-6z" fill="#f39c12"></path><path transform="translate(1675,998)" d="M0,0l7,6l12,13l5,4l7,8l12,12l8,7l3,3v2l4,2l16,16v2l3,1v2h2v2h2v2h2v2l4,2l262,262l8,7l14,14l2,1v391l-4,14l-7,26l-9,26l-9,20l-8,16l-10,18l-10,15l-13,18l-12,14l-7,8l-12,13l-4,2l-1,3l-8,7l-13,11l-16,12l-21,14l-23,13l-25,12l-30,11l-30,8l-40,8h-359l-15,-16l-76,-76v-2l-4,-2v-2l-4,-2v-2l-4,-2v-2l-4,-2v-2l-4,-2v-2l-4,-2v-2l-3,-1l-5,-5v-2l-4,-2l-5,-6l-6,-5l-5,-5v-2l-4,-2v-2l-4,-2l-4,-5l-4,-3v-2l-4,-2v-2l-4,-2v-2l-4,-2v-2l-4,-2v-2l-4,-2v-2l-4,-2v-2l-4,-2l-4,-4v-2l-4,-2v-2l-4,-2v-2l-4,-2v-2l-4,-2v-2l-4,-2v-2l-4,-2v-2l-4,-2v-2l-4,-2v-2l-4,-2v-2l-4,-2v-2l-4,-2v-2l-4,-2v-2l-4,-2v-2l-4,-2v-2l-3,-1l-5,-5v-2l-3,-1l-6,-7l-6,-5l-6,-7l-6,-5l-6,-7l-6,-5l-6,-7l-6,-5l-6,-7l-15,-15l-7,-6l-6,-7l-6,-5l-5,-5v-2l-4,-2v-2h-2v-2h-2l-5,-5v-2l-4,-2l-1,-3l-3,-1v-2h8l8,2h12l11,-3l16,-8l8,-8l7,-12l4,-16l1,-144v-407l2,-1l545,-1l14,-2l11,-4l10,-7l8,-9l6,-12l3,-11v-12l-4,-18z" fill="#d48a14"></path><path transform="translate(1021,372)" d="M0,0h12l12,3l12,6l9,7l8,11l4,10l2,11l1,168v383l551,1l14,3l10,5l11,9l7,10l4,9l2,10v12l-4,14l-7,12l-9,9l-10,6l-13,4l-10,1l-547,1l1,54v353l-1,144l-4,16l-7,12l-9,9l-16,8l-11,3h-12l-13,-4l-11,-6l-10,-10l-6,-10l-4,-12l-1,-7l-1,-550l-415,-1h-134l-16,-3l-13,-7l-8,-7l-7,-10l-5,-13l-1,-4v-14l4,-15l6,-10l7,-8l9,-6l11,-5l10,-2h552v-506l1,-46l3,-14l7,-13l8,-9l13,-8z" fill="#fefefe"></path><path transform="translate(406,1073)" d="M0,0h8l12,2h134l415,1l1,1l1,550l3,14l3,7v3l-4,-2l-14,-15l-48,-48l-6,-5l-6,-7l-6,-5l-6,-7l-6,-5l-6,-7l-6,-5l-6,-7l-6,-5l-6,-7l-6,-5l-6,-7l-7,-6l-4,-4v-2l-4,-2v-2l-4,-2v-2l-4,-2v-2l-4,-2v-2l-4,-2v-2l-4,-2v-2l-4,-2v-2l-4,-2v-2l-4,-2v-2l-4,-2v-2l-4,-2v-2l-4,-2v-2l-4,-2v-2l-4,-2v-2l-3,-1l-6,-7l-6,-5l-6,-7l-6,-5l-6,-7l-6,-5l-6,-7l-6,-5l-6,-7l-6,-5l-6,-7l-6,-5l-6,-7l-6,-5l-6,-7l-6,-5l-6,-7l-6,-5l-6,-7l-6,-5l-6,-7l-6,-5l-6,-7l-7,-6v-2l-4,-2v-2l-4,-2v-2l-4,-2v-2l-4,-2v-2l-4,-2v-2l-4,-2v-2l-3,-1l-6,-7l-6,-5l-6,-7l-6,-5l-5,-6l-7,-6l-6,-7l-6,-5l-6,-7l-6,-5l-6,-7l-6,-5l-6,-7l-6,-5l-6,-7l-6,-5l-7,-8l-5,-4l-6,-7l-6,-5l-6,-7l-6,-5l-7,-8l-7,-7l-6,-5l-7,-8l-38,-38z" fill="#d48a14"></path><path transform="translate(1075,398)" d="M0,0l7,6l11,12l6,5l7,8l5,4l366,366l7,8l162,162l8,6l2,4l-5,-1l-13,-4l-6,-1l-551,-1l-1,-1v-383l-1,-168l-4,-20z" fill="#d48a14"></path></g></g></svg>