<svg version="1.1" xmlns="http://www.w3.org/2000/svg" xmlns:xlink="http://www.w3.org/1999/xlink" width="512" height="512" viewBox="0,0,256,256"><g fill="#f39c12" fill-rule="nonzero" stroke="none" stroke-width="1" stroke-linecap="butt" stroke-linejoin="miter" stroke-miterlimit="10" stroke-dasharray="" stroke-dashoffset="0" font-family="none" font-weight="none" font-size="none" text-anchor="none" style="mix-blend-mode: normal"><g transform="scale(0.125,0.125)"><path transform="translate(957,0)" d="M0,0h143v1l61,7l47,7l48,10l32,8l41,12l36,12l28,10l29,12l30,13l35,17l23,12l21,12l24,14l22,14l20,13l20,14l18,13l18,14l14,11l11,9l14,12l10,9l11,9l13,13l2,1v2l4,2l36,36l7,8l7,7l7,8l12,14l9,10l20,25l10,13l12,16l14,20l12,17l9,14l13,21l13,22l9,16l15,28l15,30l9,20l16,38l13,35l12,36l12,41l11,45l8,40l7,46l6,54h2v159h-2l-4,40l-6,45l-6,33l-7,34l-9,36l-11,38l-12,36l-9,25l-15,37l-15,33l-12,25l-15,29l-14,24l-6,10l-6,11l-15,23l-9,14l-13,19l-12,16l-8,11l-10,13l-11,14l-9,11l-13,15l-9,10l-7,8l-9,10l-8,8l-1,2h-2l-2,4l-28,28l-8,7l-9,9l-8,7l-10,9l-11,9l-15,13l-13,10l-14,11l-16,12l-17,12l-22,15l-17,11l-24,15l-25,14l-21,12l-19,10l-23,11l-40,18l-33,13l-36,13l-38,12l-41,11l-49,11l-39,7l-53,7l-38,4l-6,1h-140l-4,-2l-68,-8l-36,-6l-45,-9l-40,-10l-44,-13l-41,-14l-38,-15l-30,-13l-36,-17l-29,-15l-23,-13l-27,-16l-22,-14l-19,-13l-17,-12l-14,-10l-13,-10l-14,-11l-16,-13l-11,-9l-11,-10l-11,-9l-9,-9l-8,-7l-13,-13l-8,-7l-7,-7l-7,-8l-16,-16l-7,-8l-11,-12l-9,-11l-9,-10l-11,-14l-12,-15l-13,-17l-24,-34l-10,-15l-12,-19l-8,-13l-15,-26l-14,-25l-21,-42l-13,-29l-15,-37l-11,-30l-12,-36l-9,-31l-10,-40l-9,-43l-7,-44l-5,-40l-3,-31l-1,-1v-144l2,-12l6,-54l7,-45l10,-48l10,-40l11,-37l12,-36l14,-37l13,-31l13,-28l12,-25l11,-20l6,-11l9,-17l8,-13l10,-16l16,-25l13,-19l11,-15l10,-14l14,-18l13,-16l9,-11l13,-15l1,-2h2l2,-4l13,-14l7,-8l7,-7l7,-8l15,-15h2l2,-4l8,-7l9,-9l8,-7l10,-9l8,-7l14,-12l14,-11l16,-13l12,-9l18,-13l17,-12l15,-10l17,-11l16,-10l20,-12l25,-14l33,-17l31,-15l33,-14l36,-14l47,-16l42,-12l41,-10l35,-7l50,-8l33,-4zM31,436l-146,1l-55,2l-42,3l-24,3l-27,5l-24,6l-30,10l-23,10l-23,12l-21,14l-13,10l-14,12l-26,26l-8,10l-12,16l-10,15l-13,24l-11,26l-10,30l-6,25l-5,27l-3,25l-2,23l-2,46l-1,34l-1,195l1,151l2,60l2,32l4,36l5,28l6,24l10,30l9,21l8,16l9,16l13,19l9,11l11,13l23,23l11,9l13,10l15,10l17,10l25,12l30,11l25,7l29,6l30,4l37,3l43,2l43,1h320l62,-2l36,-2l38,-4l28,-5l25,-6l33,-11l21,-9l25,-13l21,-14l12,-9l13,-11l12,-11l12,-12l4,-5v-2h2l13,-17l11,-16l10,-17l8,-15l12,-29l9,-29l6,-25l5,-31l3,-30l2,-40l1,-30l1,-64v-281l-2,-70l-3,-50l-4,-33l-5,-26l-7,-27l-9,-26l-9,-21l-10,-20l-13,-21l-16,-21l-11,-12l-9,-10l-17,-16l-14,-11l-17,-12l-24,-14l-21,-10l-24,-9l-26,-8l-26,-6l-33,-5l-35,-3l-43,-2l-35,-1l-174,-1zM1089,1093l1,2zM1089,1097l1,2z"></path><path transform="translate(846,542)" d="M0,0h358l53,2l40,3l32,5l30,8l27,11l17,9l17,12l15,13l11,11l9,11l11,15l10,18l8,19l7,21l6,26l4,28l2,24l2,43l1,35v334l-2,61l-2,33l-3,26l-5,26l-7,24l-6,16l-9,19l-10,16l-9,12l-12,14l-7,7l-11,9l-15,11l-21,12l-19,8l-21,7l-28,6l-20,3l-34,3l-43,2l-39,1h-319l-39,-1l-60,-3l-33,-4l-27,-6l-20,-6l-15,-6l-19,-9l-16,-10l-11,-9l-10,-9l-8,-7l-7,-8l-10,-12l-11,-17l-8,-15l-10,-26l-6,-22l-5,-25l-3,-25l-2,-30l-2,-51l-1,-53v-278l2,-64l3,-49l3,-25l6,-29l8,-26l9,-21l8,-15l9,-13l11,-14l19,-19l14,-11l15,-10l16,-8l19,-8l23,-7l29,-6l37,-4l40,-2zM483,98l-16,4l-14,7l-11,9v2h-2l-9,13l-6,13l-3,14v18l4,15l6,12l8,11l12,10l16,8l10,3l9,1h11l15,-3l11,-5l10,-6l10,-9l7,-9l7,-14l3,-12l1,-7v-9l-3,-17l-7,-16l-8,-10l-5,-5l-7,-6l-15,-8l-17,-4zM174,180l-22,1l-24,3l-24,5l-24,7l-25,10l-17,8l-19,11l-12,8l-15,11l-14,12l-5,4v2l-4,2l-10,10l-7,8l-9,10l-13,18l-10,15l-10,18l-11,23l-9,25l-6,22l-4,21l-3,24v47l3,25l6,29l8,26l11,26l13,25l7,10l7,11l10,13l18,21h2l2,4l15,14l11,9l16,12l19,12l20,11l23,10l30,10l28,6l21,3l11,1h40l25,-3l26,-5l28,-8l22,-9l23,-11l17,-10l16,-11l14,-11l13,-11l24,-24l11,-14l9,-12l12,-19l12,-22l11,-26l8,-25l5,-22l4,-26l1,-13v-38l-3,-28l-5,-25l-8,-27l-10,-25l-9,-19l-13,-22l-10,-14l-10,-13l-9,-10l-7,-8l-14,-14l-11,-9l-14,-11l-18,-12l-17,-10l-22,-11l-24,-9l-23,-7l-31,-6l-17,-2z"></path><path transform="translate(1016,827)" d="M0,0h16l22,2l23,5l20,7l15,7l15,8l17,12l11,9l18,18l13,17l8,13l11,21l7,19l6,25l2,16v36l-3,20l-5,20l-8,22l-11,21l-8,12l-10,13l-11,12l-10,10l-17,13l-16,10l-16,8l-15,6l-20,6l-22,4l-10,1h-31l-21,-3l-26,-7l-15,-6l-16,-8l-15,-9l-12,-9l-14,-12l-10,-10l-9,-11l-11,-15l-10,-18l-7,-15l-7,-21l-4,-18l-2,-13l-1,-13v-15l2,-21l4,-20l6,-20l7,-16l8,-16l8,-12l9,-12l7,-8l9,-10l11,-10l18,-13l17,-10l17,-8l21,-7l23,-5z"></path><path transform="translate(0,1097)" d="M0,0"></path></g></g></svg>