<svg version="1.1" xmlns="http://www.w3.org/2000/svg" xmlns:xlink="http://www.w3.org/1999/xlink" width="247" height="247" viewBox="0,0,256,256"><g fill="#f39c12" fill-rule="nonzero" stroke="none" stroke-width="1" stroke-linecap="butt" stroke-linejoin="miter" stroke-miterlimit="10" stroke-dasharray="" stroke-dashoffset="0" font-family="none" font-weight="none" font-size="none" text-anchor="none" style="mix-blend-mode: normal"><g transform="translate(0.38866,-0.77733) scale(0.25911,0.25911)"><path transform="translate(467,83)" d="M0,0h51l38,4l17,3l34,8l36,12l19,8l25,12l19,11l11,7l12,8l16,12l17,14l14,12l21,21l9,11l11,13l14,19l10,15l12,20l11,21l12,27l10,28l9,34l5,23l4,30l1,32v14l-1,30l-5,37l-2,5l-4,19l-9,30l-7,20l-12,27l-10,20l-16,27l-13,19l-9,12l-13,15l-8,10l-6,7h-2l-2,4l-16,15l-17,14l-12,10l-24,16l-15,9l-22,12l-23,11l-26,10l-19,6l-23,6l-28,6l-47,5h-43l-44,-5l-31,-7l-25,-7l-26,-9l-26,-11l-16,-8l-3,-1h-9l-21,5l-31,8l-11,3l-7,2l-5,1l-7,2l-68,18l-18,5l-41,11h-2l4,-16l13,-46l11,-40l10,-35l7,-26l6,-21l5,-17l3,-8l-1,-6l-10,-17l-9,-19l-9,-22l-11,-33l-7,-28l-4,-18l-4,-36l-1,-14v-34l2,-18l3,-28l6,-28l7,-26l9,-27l11,-26l8,-16l9,-17l12,-20l12,-17l8,-11l11,-12l9,-11l14,-15l8,-8l11,-9l13,-12l13,-10l17,-12l25,-15l22,-12l26,-12l18,-7l29,-9l21,-5l19,-4l21,-2l10,-2zM-125,220l-12,5l-12,11l-11,12l-8,13l-8,17l-5,19l-1,9v26l3,14l3,11l4,12l8,18l9,17l10,15l14,20l16,21l11,14l12,14l30,30l8,7l16,13l14,10l15,10l17,10l16,8l14,6l30,11l29,9l12,3l3,1l26,2l27,-2l20,-8l11,-6l14,-10l11,-11l6,-9l4,-8l4,-12l1,-33l-3,-5l-23,-12l-23,-11l-29,-14l-16,-6l-5,-1h-7l-4,2v2l-4,2l-12,16l-11,13l-9,11l-7,6l-2,1l-9,-1l-9,-4l-23,-11l-20,-12l-17,-12l-13,-10l-8,-7l-5,-6l-16,-16l-11,-14l-10,-14l-10,-15l-4,-9v-5l7,-10l9,-9l8,-10l8,-13l1,-3v-17l-7,-14l-6,-16l-11,-26l-10,-23l-7,-11l-8,-5z"></path></g></g></svg>