<svg version="1.1" xmlns="http://www.w3.org/2000/svg" xmlns:xlink="http://www.w3.org/1999/xlink" width="512" height="512" viewBox="0,0,256,256"><g fill="#f39c12" fill-rule="nonzero" stroke="none" stroke-width="1" stroke-linecap="butt" stroke-linejoin="miter" stroke-miterlimit="10" stroke-dasharray="" stroke-dashoffset="0" font-family="none" font-weight="none" font-size="none" text-anchor="none" style="mix-blend-mode: normal"><g transform="translate(0.0625,0.4375) scale(0.125,0.125)"><path transform="translate(1013,127)" d="M0,0h24l30,1l52,4l46,6l44,8l38,9l42,12l36,12l36,14l26,11l30,14l15,8l16,8l28,16l20,12l23,15l16,11l14,10l19,14l16,13l10,8l14,12l15,13l13,12l17,16l17,17l7,8l9,9l7,8l24,28l13,17l12,15l12,17l10,14l10,15l14,22l13,22l12,21l17,33l10,21l13,30l11,28l12,34l9,29l10,37l9,41l7,41l5,40l3,36l1,21v69l-2,35l-4,40l-6,42l-8,41l-8,34l-10,35l-12,37l-10,27l-12,29l-8,19l-8,16l-8,17l-11,20l-6,12l-10,17l-12,20l-22,33l-13,19l-14,18l-10,13l-8,10l-11,13l-12,14l-3,4h-2l-2,4l-10,10l-7,8l-34,34l-8,7l-13,12l-14,12l-16,13l-14,11l-21,16l-16,11l-27,18l-21,13l-24,14l-26,14l-34,17l-32,14l-36,14l-41,14l-35,10l-42,10l-36,7l-45,7l-4,-1v-690l1,-1h210l3,-23l11,-84l12,-91l6,-45h-236l-1,-5v-146l2,-30l5,-22l7,-16l6,-9l10,-11l10,-7l16,-8l19,-5l19,-3l18,-1h138v-223l-19,-1l-50,-3l-24,-1h-119l-29,3l-24,4l-25,6l-24,8l-26,11l-22,12l-15,10l-17,13l-15,14h-2l-2,4l-10,10l-9,11l-11,15l-12,19l-8,15l-10,23l-10,30l-6,25l-3,16l-3,21l-2,32l-1,195l-2,1h-209v243l3,-1h44l163,1l1,1v684l-7,-1l-42,-8l-34,-8l-42,-12l-37,-12l-41,-16l-28,-12l-25,-12l-16,-8l-27,-14l-24,-14l-20,-12l-30,-20l-18,-13l-14,-10l-16,-13l-14,-11l-28,-24l-32,-30l-18,-18v-2h-2l-7,-8l-16,-17l-9,-11l-13,-15l-13,-16l-12,-16l-11,-15l-16,-23l-11,-17l-13,-21l-12,-21l-10,-18l-14,-27l-15,-32l-16,-39l-11,-30l-11,-34l-10,-36l-9,-39l-7,-38l-6,-42l-3,-31l-2,-30l-1,-34v-22l1,-35l4,-49l5,-38l7,-40l9,-40l7,-27l12,-39l12,-34l14,-35l16,-35l16,-32l13,-24l10,-17l11,-18l10,-15l7,-11l24,-34l12,-15l11,-14l9,-11l10,-11l5,-7h2l2,-4l9,-10l8,-8l1,-2h2l2,-4l28,-28h2v-2l8,-7l7,-7l8,-7l13,-11l14,-12l13,-10l14,-11l15,-11l17,-12l24,-16l19,-12l24,-14l18,-10l33,-17l19,-9l25,-11l41,-16l36,-12l30,-9l40,-10l29,-6l41,-7l42,-5l44,-3z"></path></g></g></svg>