<svg version="1.1" xmlns="http://www.w3.org/2000/svg" xmlns:xlink="http://www.w3.org/1999/xlink" width="461" height="479" viewBox="0,0,246.375,256"><g fill="none" fill-rule="nonzero" stroke="none" stroke-width="1" stroke-linecap="butt" stroke-linejoin="miter" stroke-miterlimit="10" stroke-dasharray="" stroke-dashoffset="0" font-family="none" font-weight="none" font-size="none" text-anchor="none" style="mix-blend-mode: normal"><g transform="translate(-5.81459,-1.80376) scale(0.13361,0.13361)"><path transform="translate(645,106)" d="M0,0l10,2l5,4l4,8l2,1l2,-4l6,-5l10,-4l6,-1h13l13,4l6,7l3,4l4,-6l7,-4l3,-1h8l10,5l6,9l2,7h9l3,3v2l5,1l2,-5l8,1l5,1h8l8,4l4,5l5,12v8l-5,6l-5,2l5,7v7l-4,11l-5,10l-1,14l-4,92l-1,9l6,-2h6l9,5l5,6l3,7v13l-4,11l-6,8l-10,6l-8,3l-1,30l-6,26l-9,23l-11,19l-10,13l-5,6l-13,10l-12,6l-7,2l-19,2l2,16l6,14l2,2l13,2l21,3l34,7l28,8l8,4l8,16l9,20l13,26l14,24l12,20l14,20l12,16l11,14l12,14l11,12l28,28l22,18l11,8l4,2h5l7,6l3,5l5,1l2,-6l4,-3l6,1l5,5l2,8h5l2,-4l4,-1l4,2l2,4v10l298,1l10,3l9,7l6,10l6,21l3,21v23l-3,20l-4,15l-7,11l-7,6l-11,5l-13,2l-123,1l2,4v43l136,1l7,2l6,5l7,11l5,12l5,22l4,32l5,54v8l10,-3h9l29,5l29,6l25,7l18,6l18,8l14,9l11,10l10,14l7,14l2,7l1,8v15l-2,12l-5,13l-10,20l-10,17l-13,20l-13,19l-11,14l-11,13l-12,13l-11,12h-2v2l-8,7l-14,12l-14,10l-18,9l-3,-1l4,-10l3,-8l14,-17l4,-2l1,-3l8,-7l11,-12l10,-11l12,-16l14,-21l13,-22l10,-19l4,-16v-11l-3,-12l-8,-16l-10,-11l-10,-7l-15,-7l-27,-9l-39,-9l-19,-5v74l-1,42l-1,11l1,2l10,5l6,5l5,11l5,15l4,20v34l-1,13l-4,12l-5,9l-11,8l-10,5l-11,3l-7,1l-159,1l1,6v45l-1,122h69l3,3l3,5l4,16l6,9l4,2l33,5l41,8l25,7l28,11l17,9l10,9l4,9v10l-6,10l-7,6l-14,8l-19,8l-25,8l-27,7l-47,8l-42,5l-34,3l-40,2h-100l-45,-2l-59,-6l-24,-3l-49,-9l-31,-9l-20,-7l-15,-8l-12,-8l-7,-8l-2,-5v-9l4,-9l7,-7l13,-8l11,-6l20,-8l25,-8l44,-8l23,-3l11,-1l6,-4l5,-8l3,-14l5,-8l3,-2l57,-1l1,-168l1,-4l-152,-1l-12,-2l-9,-4l-9,-6l-7,-11l-4,-8l-4,-6l-2,4l-9,-6l-9,-7l-10,-9l-17,-17l-7,-8l-10,-12l-12,-17l-7,-10h-2l-11,61l-13,67l-12,55l-3,13l1,6l9,17l11,15l6,6h2l1,-2l10,1l45,7l33,7l23,6l25,9l25,12l7,5l7,10l1,3v9l-5,9l-9,8l-25,13l-12,5l-25,8l-17,5l-36,6l-44,6l-45,4l-34,2l-25,1h-62l-50,-2l-37,-3l-60,-7l-46,-8l-28,-7l-30,-10l-19,-10l-10,-8l-5,-7l-2,-11l3,-8l7,-8l17,-11l18,-8l24,-8l30,-7l41,-7l36,-5l16,-3l18,-3l2,1h7l11,-7l9,-7l12,-11l2,-2l-1,-8l-11,-51l-17,-86l-12,-68l-8,-49l-10,-68l-8,-67l-3,-32l-1,-5l-12,-1v-159l-5,1h-17l-7,-3l-4,-4l1,-5l4,-4l-2,-4l-8,-6v-9l-9,-2l-17,-9l-11,-8l-13,-12l-11,-12l-10,-15l-10,-21l-6,-18l-4,-20l-1,-12v-27l2,-20l6,-28l6,-19l9,-24l12,-25l8,-13l10,-15l12,-16l12,-14l19,-19l11,-9l18,-14l19,-11l16,-6l31,-8l34,-6l22,-3l6,-3l5,-14l2,-6l1,-13h-18l-18,-2l-12,-6l-10,-9l-7,-8l-8,-15l-6,-18l-4,-25l-1,-20v-30l1,-5l-12,-11l-4,-8l-1,-4v-13l3,-6l7,-6l9,-3l-1,-90l-8,-26l-8,-9l-6,-12l-3,-13l2,-14l4,-8l5,-5l9,-2l9,3h3l5,-10l8,-5l6,1l8,5v-8l6,-12l8,-7l5,-2l6,1l3,2l4,-1l4,-4zM90,19l1,2l3,-1zM50,53M34,54M47,54l-2,1h-9v2l8,1l6,-3zM1,305l-19,2l-5,2v9l4,11l7,10l8,6l12,5l9,2h24l15,-5l11,-8l6,-8l4,-10l1,-11l-7,-2l-32,-3zM-105,573l-10,8l-12,11l-8,7l-15,15l-9,11l-11,15l-9,15l-8,17l-6,21l-1,6v25l5,19l7,16l8,12l9,11l4,5h2v2l5,4h17l8,3l3,-1l2,-37l5,-55l4,-35l7,-54l5,-36l1,-5zM181,662l1,13l6,51l4,47l1,30v35l3,4v23l-4,2l-2,78l-2,56l-5,77l-1,15l2,1l21,-8l22,-6l33,-7l13,-1l2,-10l5,-48l3,-22l5,-22l6,-16l9,-16l7,-7l5,-3l5,-1l112,-1l10,-1l-1,-21v-15l1,-11l-8,-1l-121,-1l-9,-2l-10,-6l-6,-8l-5,-11l-5,-18l-3,-18v-20l4,-23l4,-13l4,-7v-2l-15,-8l-19,-13l-16,-12l-11,-9l-10,-9l-28,-28l-6,-7zM57,981v61h-80v114l2,40l4,52l6,61l6,54l8,62l5,36v12l7,15l4,13l1,1h21l10,3l4,-8l7,-20l4,-9l4,-7l7,-68l6,-70l4,-61l2,-40l1,-31l1,-51v-22l-1,-52l-2,-37l-3,-39l-1,-7l-14,-2zM269,1124l-30,7l-29,9l-16,8l-9,7l-5,4l-6,8l-5,35l-2,19l3,8l16,27l9,15l13,18l9,12l22,28h2l2,-25l4,-19l6,-16l6,-9l7,-6l9,-4l-2,-64l-1,-57l-1,-5z" fill="#a1743e"></path><path transform="translate(645,106)" d="M0,0l10,2l5,4l4,8l2,1l2,-4l6,-5l10,-4l6,-1h13l13,4l6,7l3,4l4,-6l7,-4l3,-1h8l10,5l6,9l2,7h9l3,3v2l5,1l2,-5l8,1l5,1h8l8,4l4,5l5,12v8l-5,6l-5,2l5,7v7l-4,11l-5,10l-1,14l-4,92l-1,9l6,-2h6l9,5l5,6l3,7v13l-4,11l-6,8l-10,6l-8,3l-1,30l-6,26l-9,23l-11,19l-10,13l-5,6l-13,10l-12,6l-7,2l-19,2l2,16l6,14l2,2l13,2l21,3l34,7l28,8l8,4l8,16l9,20l13,26l14,24l12,20l14,20l12,16l11,14l12,14l11,12l28,28l22,18l11,8l-4,11l-3,2l-9,-6l-2,-1h-6l-6,5l-2,8v9l-21,7l-11,6l-7,5l-16,-9l-16,-11l-16,-12l-11,-9l-10,-9l-29,-29l-5,-6l2,20l5,43l4,47l1,30v36h-261l-2,-4l-2,6l-1,26l-1,8l-3,1l-1,-7l-1,-31l-9,-2l-2,-2l-2,6v31l-1,22h-3l-1,-5l-1,-36l-1,-12l-3,-5l1,-7v-11l-7,-8l-2,-4l-4,-2l-11,-7l-3,-1l2,-37l5,-55l4,-35l7,-54l5,-36l1,-4l-5,2l-15,13l-15,14l-11,11l-9,11l-11,15l-9,15l-8,17l-6,21l-1,6v25l5,19l7,16l8,12l9,11l3,3v2h2v2l4,2v23l-5,5l-5,3l-1,7l9,11l-1,4l-10,4l-8,-1l-17,-9l-11,-8l-13,-12l-11,-12l-10,-15l-10,-21l-6,-18l-4,-20l-1,-12v-27l2,-20l6,-28l6,-19l9,-24l12,-25l8,-13l10,-15l12,-16l12,-14l19,-19l11,-9l18,-14l19,-11l16,-6l31,-8l34,-6l22,-3l6,-3l5,-14l2,-6l1,-13h-18l-18,-2l-12,-6l-10,-9l-7,-8l-8,-15l-6,-18l-4,-25l-1,-20v-30l1,-5l-12,-11l-4,-8l-1,-4v-13l3,-6l7,-6l9,-3l-1,-90l-8,-26l-8,-9l-6,-12l-3,-13l2,-14l4,-8l5,-5l9,-2l9,3h3l5,-10l8,-5l6,1l8,5v-8l6,-12l8,-7l5,-2l6,1l3,2l4,-1l4,-4zM90,19l1,2l3,-1zM50,53M34,54M47,54l-2,1h-9v2l8,1l6,-3zM1,305l-19,2l-5,2v9l4,11l7,10l8,6l12,5l9,2h24l15,-5l11,-8l6,-8l4,-10l1,-11l-7,-2l-32,-3z" fill="#f39c12"></path><path transform="translate(489,898)" d="M0,0h19l11,4l1,-2l10,7l6,4l7,8l3,4v11l-1,7l3,5l1,15l1,33l2,4l1,-26v-26l3,-7l4,3l7,2l1,3l1,35l2,-1l1,-13l1,-23l2,-5l3,3v2h261l3,3v23l-2,2h-3v45l-3,89l-5,77l-2,12l-16,8l-15,8l-13,11l-9,10l-8,13l-5,14l-2,10v15l3,14l7,16l10,18l14,24l9,15l1,2v12l-9,51l-13,67l-12,55l-3,13l1,6l9,17l11,15l6,6h2l1,-2l10,1l45,7l33,7l23,6l25,9l25,12l7,5l7,10l1,3v9l-5,9l-9,8l-25,13l-12,5l-25,8l-17,5l-36,6l-44,6l-45,4l-34,2l-25,1h-62l-50,-2l-37,-3l-60,-7l-46,-8l-28,-7l-30,-10l-19,-10l-10,-8l-5,-7l-2,-11l3,-8l7,-8l17,-11l18,-8l24,-8l30,-7l41,-7l36,-5l16,-3l18,-3l2,1h7l11,-7l9,-7l12,-11l2,-2l-1,-8l-11,-51l-17,-86l-12,-68l-8,-49l-10,-68l-8,-67l-3,-32l-1,-5l-12,-1v-159l-5,1h-17l-7,-3l-4,-4l1,-5l4,-4l-2,-4l-8,-6v-9l-1,-2l10,-4l-1,-4l-8,-10l1,-7l9,-6l1,-2zM213,189v61h-80v114l2,40l4,52l6,61l6,54l8,62l5,36v12l7,15l4,13l1,1h21l10,3l4,-8l7,-20l4,-9l4,-7l7,-68l6,-70l4,-61l2,-40l1,-31l1,-51v-22l-1,-52l-2,-37l-3,-39l-1,-7l-14,-2z" fill="#6e6958"></path><path transform="translate(1226,1493)" d="M0,0h10l1,1l12,1v1h-23l1,6v45l-1,122h69l3,3l3,5l4,16l6,9l4,2l33,5l41,8l25,7l28,11l17,9l10,9l4,9v10l-6,10l-7,6l-14,8l-19,8l-25,8l-27,7l-47,8l-42,5l-34,3l-40,2h-100l-45,-2l-59,-6l-24,-3l-49,-9l-31,-9l-20,-7l-15,-8l-12,-8l-7,-8l-2,-5v-9l4,-9l7,-7l13,-8l11,-6l20,-8l25,-8l44,-8l23,-3l11,-1l6,-4l5,-8l3,-14l5,-8l3,-2l57,-1l1,-168l1,-4h-8v-1l95,-1z" fill="#a7a8a8"></path><path transform="translate(645,106)" d="M0,0l10,2l5,4l4,8l2,1l2,-4l6,-5l10,-4l6,-1h13l13,4l6,7l3,4l4,-6l7,-4l3,-1h8l10,5l6,9l2,7h9l3,3v2l5,1l2,-5l8,1l5,1h8l8,4l4,5l5,12v8l-5,6l-5,2l5,7v7l-4,11l-5,10l-1,14l-4,92l-1,9l6,-2h6l9,5l5,6l3,7v13l-4,11l-6,8l-10,6l-8,3l-1,30l-6,26l-9,23l-11,19l-10,13l-5,6l-13,10l-12,6l-7,2l-19,2v14l-6,5l-15,7h-2l-2,6l-2,3l-7,1l-4,-3l-1,-6l-7,-1l-11,-6l-7,-5l1,-18h-18l-18,-2l-12,-6l-10,-9l-7,-8l-8,-15l-6,-18l-4,-25l-1,-20v-30l1,-5l-12,-11l-4,-8l-1,-4v-13l3,-6l7,-6l9,-3l-1,-90l-8,-26l-8,-9l-6,-12l-3,-13l2,-14l4,-8l5,-5l9,-2l9,3h3l5,-10l8,-5l6,1l8,5v-8l6,-12l8,-7l5,-2l6,1l3,2l4,-1l4,-4zM90,19l1,2l3,-1zM50,53M34,54M47,54l-2,1h-9v2l8,1l6,-3zM1,305l-19,2l-5,2v9l4,11l7,10l8,6l12,5l9,2h24l15,-5l11,-8l6,-8l4,-10l1,-11l-7,-2l-32,-3z" fill="#956636"></path><path transform="translate(927,1325)" d="M0,0l7,1l21,1l39,1h23l75,1h26l39,1h14l5,-1l9,1h29l17,-1l33,-1h63l25,-1h34l17,1v24l1,2l10,5l6,5l5,11l5,15l4,20v34l-1,13l-4,12l-5,9l-11,8l-10,5l-11,3l-7,1h-148l-2,-1l-61,1h-239l-12,-2l-9,-4l-9,-6l-7,-11l-4,-8l-2,-3l-3,-23v-7h-2v-21l4,-19l6,-16l6,-9l8,-7l9,-3l-1,-8v-19l7,-3z" fill="#a0743e"></path><path transform="translate(1000,809)" d="M0,0l5,1h5l7,6l3,5l5,1l2,-6l4,-3l6,1l5,5l2,8h5l2,-4l4,-1l4,2l2,4v10l298,1l10,3l9,7l6,10l6,21l3,21v23l-3,20l-4,15l-7,11l-7,6l-11,5l-13,2l-269,1l-121,-1l-9,-2l-10,-6l-6,-7l-6,-13l-5,-18l-3,-18v-20l4,-23l4,-13l4,-7l1,-4l8,-6l10,-5l18,-5v-10l3,-8l6,-5h6l8,5l4,2l4,-8z" fill="#a1743e"></path><path transform="translate(663,1603)" d="M0,0l2,4h21l10,3l2,-2l2,13l6,16l9,16l10,13l9,10l2,1v2l5,2l4,2v2l5,1l16,6l7,1l1,1l21,1l12,-1l15,-3l11,-4l8,-6l1,-1l-1,-7l-5,-6l-8,-7l-21,-21l-9,-11l-7,-10l1,-3l3,1l1,-2l10,1l45,7l33,7l23,6l25,9l25,12l7,5l7,10l1,3v9l-5,9l-9,8l-25,13l-12,5l-25,8l-17,5l-36,6l-44,6l-45,4l-34,2l-25,1h-62l-50,-2l-37,-3l-60,-7l-46,-8l-28,-7l-30,-10l-19,-10l-10,-8l-5,-7l-2,-11l3,-8l7,-8l17,-11l18,-8l24,-8l30,-7l41,-7l36,-5l16,-3l18,-3l9,2l-5,5l-10,8l-19,12l-11,6l-9,6l-12,6l-12,7l-6,7l1,5l4,5l9,6l9,4h20l24,-5l29,-8l15,-5l16,-6l13,-6l23,-11l15,-10h2l2,-4l2,-2l-1,-13l-1,-4z" fill="#e7e6e7"></path><path transform="translate(531,1148)" d="M0,0h67l14,2l4,2l4,4l2,1l1,105l2,40l4,52l6,61l6,54l8,62l5,36v12l7,15l2,5l1,15l2,12v5l-5,6l-17,11l-17,8l-10,5l-14,6l-16,6l-24,7l-28,7l-11,2h-20l-10,-5l-10,-7l-4,-6l1,-5l7,-7l19,-10l40,-24l12,-9l5,-4l3,-3l16,-11l15,-14l1,-5l-8,-36l-20,-100l-12,-67l-8,-48l-11,-75l-8,-67l-3,-32v-5z" fill="#6e6958"></path><path transform="translate(1008,1704)" d="M0,0l1,2l-4,8h-2l-1,4l-9,11l-8,13l-2,9v17l4,8l6,3l25,1h290l23,-1l6,-4l2,-4l1,-19l-1,-10l-8,-11l-12,-16l-6,-9v-2l24,3l47,9l27,7l24,9l21,10l9,7l5,6l3,7v10l-6,10l-7,6l-14,8l-19,8l-25,8l-27,7l-47,8l-42,5l-34,3l-40,2h-100l-45,-2l-59,-6l-24,-3l-49,-9l-31,-9l-20,-7l-15,-8l-12,-8l-7,-8l-2,-5v-9l4,-9l7,-7l13,-8l11,-6l20,-8l25,-8l44,-8l23,-3l11,-1z" fill="#e7e6e7"></path><path transform="translate(645,106)" d="M0,0l10,2l5,4l4,8l2,1l2,-4l6,-5l10,-4l6,-1h13l13,4l6,7l3,4l4,-6l7,-4l3,-1h8l10,5l6,9l2,7h9l3,3v2l5,1l2,-5l8,1l5,1h8l8,4l4,5l5,12v8l-5,6l-5,2l5,7v7l-4,11l-5,10l-1,14l-4,92l-1,10l-6,10l-5,10l-3,5h-2v2h-2l-3,-8l-6,-35l-1,-3l-10,-2l-14,-6l-4,-1h-10l-16,3h-5l-4,-5l1,-4l10,-6l5,-2l6,-1h10l11,3l14,6h3v-9l-2,-16l-3,-18l-7,-14l-8,-6l-10,-1l-12,2l-17,7l-15,4l-6,1h-13l-12,-2l-19,-8l-17,-9l-14,-9l-8,-5l-8,-1l-10,5l-6,7l-2,13l-4,70h-2v17l-3,6l-3,1l-3,-1l-1,-86l-9,-29l-8,-9l-6,-12l-3,-13l2,-14l4,-8l5,-5l9,-2l9,3h3l5,-10l8,-5l6,1l8,5v-8l6,-12l8,-7l5,-2l6,1l3,2l4,-1l4,-4zM90,19l1,2l3,-1zM50,53M34,54M47,54l-2,1h-9v2l8,1l6,-3z" fill="#3f3d3c"></path><path transform="translate(562,947)" d="M0,0l3,1l1,3v68l12,-1l3,-1v-2h3v-2h2l-4,-4l-1,-6v-17l4,-1l3,7v12l2,4l1,-6l-3,-1l1,-6h3l3,-9l2,-3l6,-5h6v-2l9,1l8,-2h8l23,-4l4,-2l12,-1l5,-2l5,4l9,2l2,-1l5,3l-2,4v9l2,3v20l-2,10l1,7l-1,3l-1,20l1,14v17l2,8l1,10l2,10v39h-80l1,6l-1,3l-5,-2l-1,-3l-18,-3h-70l-12,-1v-158l10,-7l3,-12l2,-3v-11l5,-9h9l1,1l1,65l1,3h7l3,-2l1,-63z" fill="#2d211a"></path><path transform="translate(934,1444)" d="M0,0h495l3,3l-1,6l-2,2l-3,10l-3,8v6l-10,7l-10,5l-11,3l-7,1h-148l-2,-1l-61,1h-239l-12,-2l-9,-4l-9,-6l-4,-6l-1,-6l2,-23l13,-2z" fill="#83572e"></path><path transform="translate(1226,1493)" d="M0,0h10l1,1l12,1v1h-23l1,6v45l-1,122l-1,-2l-22,1l-118,1l1,-169l1,-4h-8v-1l95,-1z" fill="#c9c8c8"></path><path transform="translate(570,330)" d="M0,0l5,2l-2,3l3,37l2,16l1,3l9,2l5,2l7,1h9l35,-5h13l35,2l25,5l17,3h15l10,-3v-2l5,-4l4,-7l10,-17l5,-10l2,-7l3,1l2,5l1,7l7,13l4,2v30l-6,26l-9,23l-11,19l-10,13l-5,6l-13,10l-12,6l-7,2l-19,2v14l-6,5l-15,7h-2l-2,6l-2,3l-7,1l-4,-3l-1,-6l-7,-1l-11,-6l-7,-5l1,-18h-18l-18,-2l-12,-6l-10,-9l-7,-8l-8,-15l-6,-18l-4,-25l-1,-20v-30l1,-5l-2,-4l4,-12l2,-19zM76,81l-19,2l-5,2v9l4,11l7,10l8,6l12,5l9,2h24l15,-5l11,-8l6,-8l4,-10l1,-11l-7,-2l-32,-3z" fill="#786250"></path><path transform="translate(1388,930)" d="M0,0h3v9l-4,17l-5,10l-7,8l-14,7l-13,2l-269,1l-121,-1l-9,-2l-10,-6l-6,-7l-6,-13l-4,-14v-7l7,-2h344l52,-1z" fill="#83572e"></path><path transform="translate(1412,1175)" d="M0,0h9l29,5l29,6l25,7l18,6l18,8l14,9l11,10l10,14l7,14l2,7l1,8v15l-2,12l-5,13l-10,20l-10,17l-13,20l-13,19l-11,14l-11,13l-12,13l-11,12h-2v2l-8,7l-14,12l-14,10l-18,9l-3,-1l4,-10l3,-8l14,-17l4,-2l1,-3l8,-7l11,-12l10,-11l12,-16l14,-21l13,-22l10,-19l4,-16v-11l-3,-12l-8,-16l-10,-11l-10,-7l-15,-7l-27,-9l-39,-9l-19,-5l-1,-2l-1,-10l-1,-35z" fill="#c9c8c8"></path><path transform="translate(819,161)" d="M0,0M-275,-5l4,1v12l2,7l1,3l6,2l7,3l21,5l8,1h11l1,3l10,1l9,-3l8,-3l16,-3l10,-3l2,-4l4,-4l5,1l6,2l7,1l9,9l10,4l6,1h8l6,3l7,4h12l6,-3l10,-6l18,-9l11,1l8,-5l4,-3h2v-2h2l1,-3l10,-8h6l2,3l-1,4l-5,4h-2l5,7v7l-4,11l-5,10l-1,14l-4,92l-1,10l-6,10l-5,10l-3,5h-2v2h-2l-3,-8l-6,-35l-1,-3l-10,-2l-14,-6l-4,-1h-10l-16,3h-5l-4,-5l1,-4l10,-6l5,-2l6,-1h10l11,3l14,6h3v-9l-2,-16l-3,-18l-7,-14l-8,-6l-10,-1l-12,2l-17,7l-15,4l-6,1h-13l-12,-2l-19,-8l-17,-9l-14,-9l-8,-5l-8,-1l-10,5l-6,7l-2,13l-4,70h-2v17l-3,6l-3,1l-3,-1l-1,-86l-9,-29l-8,-9l-6,-12l-3,-13l2,-14z" fill="#2a2828"></path><path transform="translate(918,1175)" d="M0,0h1v27l-1,25l-1,8h-1v-5l-16,4l-26,7l-24,8l-11,6l-9,7l-5,5l-5,6l-5,35l-2,19l3,8l16,27l9,15l13,18l9,12l11,14l10,12v2h2v-12h1v8h2l3,22v6l-2,-1l-2,4l-9,-6l-9,-7l-10,-9l-17,-17l-7,-8l-10,-12l-12,-17l-7,-10h-2l-1,5h-1l-2,-9l-28,-48l-8,-16l-5,-12l-2,-11v-15l4,-17l7,-14l9,-12l9,-9l11,-8l19,-10l9,-4l1,-5h1v8l16,-6l24,-7l31,-7l6,-1h13z" fill="#c9c8c8"></path><path transform="translate(489,898)" d="M0,0h19l11,4l1,-2l10,7l6,4l7,8l3,4v11l-1,7l3,5l1,15l1,33l2,4l1,-26v-26l3,-7l4,3l7,2l1,3l1,35l2,-1l1,-13l1,-23l2,-5l3,3v2h261l3,3v23l-1,1l-12,1h-20l-15,1l-3,1l-1,2l-6,-1l-7,-3h-73v104l2,3l7,2v3h2v2h-13v22l-2,-3l-2,-13l-2,-12v-18l-1,-21l1,-12l1,-5l-1,-8l2,-7v-20l-2,-3v-10l2,-1l-1,-3l-4,-1l-4,1l-9,-4l-3,-2l-4,2l-12,1l-4,2l-25,4l-11,1l-5,1l-7,-2v2l-8,2l-5,6l-4,9h-3v6l2,1l1,4l-3,3l-2,-5v-12l-2,-6h-3v17l1,6l3,2v2h-2v2h-3v2l-3,2l-9,1l-3,-1l-1,-68l-1,-3l-3,1l-1,3l-1,63l-4,3h-7l-2,-4l-1,-65l-9,-1l-1,4l-3,5v11l-3,5l-2,10l-8,6l-3,1h-22l-7,-3l-4,-4l1,-5l4,-4l-2,-4l-8,-6v-9l-1,-2l10,-4l-1,-4l-8,-10l1,-7l9,-6l1,-2z" fill="#3f3028"></path><path transform="translate(596,1586)" d="M0,0l11,1l14,4h13l14,-4h7l4,2l4,10l1,15l2,12v5l-5,6l-17,11l-17,8l-10,5l-14,6l-16,6l-24,7l-28,7l-11,2h-20l-10,-5l-10,-7l-4,-6l1,-5l7,-7l19,-10l40,-24l12,-9l5,-4l3,-3l16,-11z" fill="#d55e2a"></path><path transform="translate(562,947)" d="M0,0l3,1l1,3v68l12,-1l3,-1v-2h3v-2h2l-4,-4l-1,-6v-17l4,-1l3,7v12l2,4l1,-6l-3,-1l1,-6h3l3,-9l2,-3l6,-5h6v-2l9,1l8,-2h8l23,-4l4,-2l12,-1l5,-2l5,4l9,2l2,-1l5,3l-2,4v9l2,3v20l-2,10l1,7l-1,3l-1,20l1,14v17l2,8l1,10l2,10v39h-80l1,6l-1,3l-5,-2l-1,-3l-18,-3h-70l-12,-1v-158l10,-7l3,-12l2,-3v-11l5,-9h9l1,1l1,65l1,3h7l3,-2l1,-63zM101,65l-10,1l-1,1h-21l-17,-1l-3,2l-24,4l-7,1l-3,2h-7l-5,1l-30,-1l-4,3l-4,17l-1,21l-1,15l1,14l-1,5v29l3,9l4,3l19,2l33,-1l11,1l18,-2l16,1l11,1h34l16,-2l5,-3l2,-6l1,-12l-4,-37v-16l1,-24l-1,-13l-4,-6l-4,-3l-7,-2l-3,-3z" fill="#352d28"></path><path transform="translate(709,1576)" d="M0,0l5,1l5,4l10,7l10,3h12l9,-6l2,-2h7l10,16l8,11l4,4l3,7l9,12l14,15l17,17l7,6l2,4v5l-8,7l-9,4l-14,3l-13,2h-12l-13,-1l-1,-1l-9,-2l-14,-5l-5,-2v-2l-4,-1l-5,-3v-2l-4,-2l-10,-11l-11,-16l-8,-15l-5,-16v-12l9,-24z" fill="#d55e2a"></path><path transform="translate(704,972)" d="M0,0h73l13,5l1,-3l3,-1l24,-1h22l-4,3l-7,1l-21,1h-5l-1,7h2l6,7l4,2l2,5l-3,1l-12,-5l-5,-4l-3,-1l-1,-2l-7,-4v-2h-2v-2h-2v-2l-7,-2h-69v57l1,44l8,1h17l22,-1l15,-2h13l-1,4l-7,4l-9,3l-3,3l-9,5l-1,15v40l-1,104v19l-2,45l-1,18l-1,31l-2,29l-3,25l-3,34l-2,13l-4,37l-2,18l-1,4l-2,25l-1,2l1,4l-2,4l1,7v9l3,5l3,2l7,1h11l9,-6l7,-1l3,6l-7,1l-9,7l-2,1h-12l-10,-3l-10,-7l-7,-5l-3,-2l4,-5l1,-3l7,-68l6,-70l4,-61l2,-40l1,-31l1,-51v-22l-1,-52l-2,-37l-3,-39v-7l-14,-1v-3h-2v-3l-7,-1l-3,-4v-104z" fill="#60605f"></path><path transform="translate(964,1330)" d="M0,0h53l124,2h87l37,-1l53,-1h69l14,1l2,1v18l-1,1h-14l-32,-2h-19l-80,-2l-39,-1h-103l-19,1l-47,1h-26l-21,1l-16,-1h-13l-6,1h-22l-18,1l-4,-3l-1,-7l2,-3l2,-5l3,-1z" fill="#83572e"></path><path transform="translate(1093,983)" d="M0,0h140v1h-8l2,4v44l-18,1h-106l-26,-1v-1h10l-1,-2l-1,-19v-15l2,-11z" fill="#c9c8c8"></path><path transform="translate(531,1148)" d="M0,0h67l14,2l4,2l4,4l2,1l1,105l2,40l4,52l6,61l6,54l8,62l5,36v12l4,9h-10l-8,3l-6,1h-13l-14,-4l-10,-2l3,-4l9,2l25,1l5,-1l2,-16l-1,-10l-1,-1l-1,-14l-3,-21l-1,-3l-1,-16l-2,-16l-3,-13l-1,-10l-1,-4l-1,-12l-1,-5l-1,-14l-1,-1l-4,-33l-8,-84l-3,-35l-2,-41l-2,-48v-37l-70,1h-4v-2z" fill="#60605f"></path><path transform="translate(489,898)" d="M0,0h19l11,4l1,-2l10,7l6,4l7,8l3,4v11l-1,7l3,5l1,15l1,33l2,4l1,-26v-26l3,-7l4,3l7,2l1,3l1,35l2,-1l1,-13l1,-23l2,-5l3,3v2h261l-4,2l-169,1h-86l-1,3l-1,65l-3,2h-7l-2,-1l-1,-66l-1,-3l-3,1l-1,3l-1,63l-4,3h-7l-2,-4l-1,-65l-9,-1l-1,4l-3,5v11l-3,5l-2,10l-8,6l-3,1h-22l-7,-3l-4,-4l1,-5l4,-4l-2,-4l-8,-6v-9l-1,-2l10,-4l-1,-4l-8,-10l1,-7l9,-6l1,-2z" fill="#966737"></path><path transform="translate(562,947)" d="M0,0l3,1l1,3v66h-1l-1,-67h-2l-1,66l-5,6l-12,1h-9l-3,2l-4,17l-1,21l-1,15l1,14l-1,5v29l3,9l3,2l19,2l30,1l15,1h23l8,1h11l16,1l5,-1l5,1h9l6,-1h16l7,-2v8h-80l1,6l-1,3l-5,-2l-1,-3l-18,-3h-70l-12,-1v-158l10,-7l3,-12l2,-3v-11l5,-9h9l1,1l1,65l1,3h7l3,-2l1,-63z" fill="#40322a"></path><path transform="translate(927,1325)" d="M0,0l7,1l21,1l39,1h23l75,1h26l39,1h14l5,-1l9,1h29l17,-1l33,-1h63l25,-1h34l17,1v4l-24,-1h-72l-50,1l-39,1h-86l-117,-2h-51l-35,1l-3,1l-2,6l-1,5l2,4l2,1l28,-1h15l4,-1h20l9,1l21,-1h35l39,-1l27,-1h97l37,1l53,1l29,1h15l32,2l14,1l4,5l-5,2l-9,-1l-23,-2h-54l-13,-2h-13l-19,-1h-37l-4,-1h-63l-2,1h-28l-7,-1l-8,2l-10,-2l-1,2l-19,-1l-19,1l-3,-1h-73l-9,1l-23,1l-2,1l-8,-1l-7,1h-20l-6,-2l-2,-5v-19l7,-3z" fill="#966737"></path><path transform="translate(600,204)" d="M0,0l8,1l11,7l13,8l21,11l17,6l8,1h13l14,-3l12,-4l15,-6l14,-1l7,2l8,7l6,13l3,18l2,16v9l-4,1l-16,-7l-9,-2h-10l-9,2l-9,5l-3,1l1,5l2,3l9,-1l12,-2h10l14,5l7,3l7,1l3,9l5,30l2,8h2v-2h2l2,-5l9,-17l3,-4l6,-2h6l9,5l5,6l3,7v13l-4,11l-6,8l-10,6l-10,3l-4,-2l-7,-13l-2,-12h-3l-1,6h-1l-2,-6l-4,-7l-2,-12l-3,-12v-10l-4,-5l-20,-9h-13l-17,3l-5,-1l-3,-3v-7l7,-6l8,-3l9,-2h9l12,3h6v-10l-2,-13l-3,-7l-1,-7h-2l-3,-5l-3,-2l-8,-1h-13l-16,3l-7,2l-7,1h-15l-21,-5l-12,-5l-19,-10l-13,-7l-7,-3l-6,-4h-7l-6,2l3,-3z" fill="#83572e"></path><path transform="translate(816,717)" d="M0,0l2,4l2,10l1,13l1,3l2,19l3,7l7,59l4,47l1,30v36h-259l1,-2l11,-1h31l35,-1h11l8,-2h6l7,2h80l41,-1l6,-2l3,-9l1,-5v-11l1,-12v-47l-1,-16v-13l-1,-13l-1,-3h2l-1,-2v-17h-2v-13l-1,-7v-21l-2,-24v-7z" fill="#b7790b"></path><path transform="translate(1000,810)" d="M0,0h5l7,6l3,5l5,1l2,-6l4,-3l6,1l5,5l1,2v7l7,1l2,1v2l4,2l2,5l1,6l-4,10l-6,4l-9,1l-13,3h-10l-11,2h-13l-1,-2h2l-1,-3h-3l-4,-5l-5,-5v-14l-2,-4h2v-2h2v-2l5,1l7,1h5l1,-10l2,-7z" fill="#966737"></path><path transform="translate(663,1603)" d="M0,0l2,4l3,2l2,24l-2,9l-10,10l-10,6l-19,10l-27,11l-24,8l-22,6l-17,4l-15,3l-8,1h-11l-9,-3l-10,-7l-7,-8l-3,-9l1,-8l7,-8l12,-7l10,-5l13,-8l11,-6l21,-13l11,-8l3,1l-11,9l-15,10l-14,8l-14,9l-12,6l-12,7l-6,7l1,5l4,5l9,6l9,4h20l24,-5l29,-8l15,-5l16,-6l13,-6l23,-11l15,-10h2l2,-4l2,-2l-1,-13l-1,-4z" fill="#c8c7c7"></path><path transform="translate(541,694)" d="M0,0l3,4v16l-1,9v15l-1,13l-1,3l-1,35v13l-1,17l-1,11v46l1,11v19l-1,5l-5,-1l-13,-9h-2l2,-37l5,-55l4,-35l7,-54l3,-22z" fill="#b7790b"></path><path transform="translate(697,1608)" d="M0,0h1l2,13l6,16l9,16l10,13l9,10l2,1v2l5,2l4,2v2l5,1l16,6l7,1l1,1l21,1l12,-1l15,-3l11,-4l8,-6l1,-1l-1,-7l-5,-6l-8,-7l-21,-21l-9,-11l-7,-10l1,-3l5,4l3,5v2l3,1l7,8l4,4v2l4,2v2l5,2l6,7l4,3v2l3,1v2l4,2l6,7l2,5l-1,10l-3,6l-9,5l-7,3l-9,2l-13,3l-8,1h-27l-17,-2l-10,-4l-11,-8l-11,-11l-11,-15l-8,-14l-7,-20l-1,-8v-13z" fill="#c7c6c6"></path><path transform="translate(519,900)" d="M0,0l11,7l6,4l7,8l3,4v11l-1,7l3,5l1,15l1,33l2,4l1,-26v-26l3,-7l4,3l7,2l1,3l1,35l2,-1l1,-13l1,-23l2,-5l3,3v2h261l-4,2l-169,1h-86l-1,3l-1,65l-3,2h-7l-2,-1l-1,-66l-1,-3l-3,1l-1,3l-1,63l-4,3h-7l-2,-4l-1,-65h-10l-2,-1v-9l2,-6l7,-4l-1,-7l-6,-7l-11,-8l-7,-4l2,-1z" fill="#777573"></path><path transform="translate(1364,1438)" d="M0,0l35,1l18,1l12,1l4,-1v17l-4,12l-5,9l-2,-1l1,-7l4,-11l2,-5l2,-7l-2,-2h-495l-21,2l-10,2l-2,23l-1,4l-5,-10v-11l-1,-11l4,-2l18,-1l21,-1h132l17,1l44,1h69l15,-1l3,1l5,-1l20,-1h34l4,1l32,-1h13l21,-1z" fill="#966737"></path><path transform="translate(1298,926)" d="M0,0l30,1h25l33,1l5,1l-3,2l-123,2h-335l-7,1l-1,3v-7l8,-3h66l23,1h89l23,1l68,-2h17l18,1z" fill="#966737"></path><path transform="translate(750,1093)" d="M0,0h1v55l-1,104v19l-2,45l-1,18l-1,31l-2,29l-3,25l-3,34l-2,13l-4,37l-2,18l-1,4l-2,25l-1,2l1,4l-2,4l1,7v9l3,5l3,2l7,1h11l9,-6l7,-1l3,6l-7,1l-9,7l-2,1h-12l-10,-3l-10,-7l-7,-5l-3,-2l4,-5l1,-3l1,-11h1v8h5l2,-8l1,-38l2,-5l1,-13l2,-11v-11l3,-14l1,-7l4,-32l2,-17l4,-56v-8l1,-6l1,-37l1,-17v-59l2,-47l1,-82z" fill="#776a60"></path><path transform="translate(671,509)" d="M0,0l33,1l2,2v19l-7,5l-3,3l-9,3l-2,6l-2,3l-7,1l-4,-3l-1,-6l-7,-1l-11,-6l-7,-5l1,-15h3l1,-4z" fill="#83572e"></path><path transform="translate(1008,1704)" d="M0,0l1,2l-4,8h-2l-1,4l-9,11l-8,13l-2,9v17l4,8l6,3l25,1h290l23,-1l6,-4l2,-4l1,-19l-1,-10l-8,-11l-12,-16l-6,-9v-2l4,1l3,6l9,12l11,14l4,10v22l-3,8l-5,5l-15,2h-329l-8,-3l-3,-3l-3,-9l-1,-13l1,-11l4,-8l10,-14l9,-11l5,-7z" fill="#c9c8c8"></path><path transform="translate(821,946)" d="M0,0h19l2,2v23l-1,1l-12,1h-20l-15,1l-3,1l-1,2l-6,-1l-7,-3h-73v104l2,3l7,2v3h2v2h-13l-1,-1l-1,-9v-101l3,-5l1,-1l42,-1h39l43,-1l12,-1v-15l-8,-2h-115l-60,1h-77v66l-2,2l-9,1l-3,-1v-2h9l2,-1l1,-65l2,-4h86z" fill="#413f3d"></path><path transform="translate(720,429)" d="M0,0l1,2l3,1l2,3l4,-1l2,-4l9,-1l3,4l-1,6v4l-4,1l-2,5l-6,5l-4,6l-10,8l-10,5l-11,1l-8,3l-10,-2l-2,-2v-3l-6,-1l-5,-3v-8l21,-1l15,-5l11,-8l6,-9z" fill="#776a61"></path><path transform="translate(808,320)" d="M0,0h6l9,5l5,6l3,7v13l-4,11l-6,8l-10,6l-10,3l-4,-2l-7,-13v-13l2,-2l4,-10l2,-4h8l1,1l7,1l1,6l7,2l4,1l2,-3l-5,-9v-2h-2l-3,-7l-5,-3l-5,-1z" fill="#966838"></path><path transform="translate(489,898)" d="M0,0h19l8,3l9,6l11,8l7,9v5l-6,4h-2l-2,12l-3,-3l-1,-4l2,-3h2l2,-4l3,-4v-2l-3,-1l-2,-5l-5,-5l-5,-4l-7,-3h-17v3l3,8l-2,10l-3,5l-1,15l-5,5l-2,7l3,12l-1,4l-2,1v7l4,2v3l-5,-1l-5,-5l1,-5l4,-4l-2,-4l-8,-6v-9l-1,-2l10,-4l-1,-4l-8,-10l1,-7l9,-6l1,-2z" fill="#a1743f"></path><path transform="translate(603,1152)" d="M0,0h1l1,17l1,33l1,30l2,38l4,45l1,6l2,25l3,26l4,32l2,18l2,7l2,26l3,16l1,15l2,10l2,20l4,23v8l2,16l1,13l1,4l5,-3l4,-3l1,8l3,6h-10l-8,3l-6,1h-13l-14,-4l-10,-2l3,-4l9,2l25,1l5,-1l2,-16l-1,-10l-1,-1l-1,-14l-3,-21l-1,-3l-1,-16l-2,-16l-3,-13l-1,-10l-1,-4l-1,-12l-1,-5l-1,-14l-1,-1l-4,-33l-8,-84l-3,-35l-2,-41l-2,-48z" fill="#776a60"></path><path transform="translate(575,940)" d="M0,0l3,3v2h261l-4,2l-169,1h-86l-1,3l-1,65l-3,2h-7l-1,-2v-42l2,1v7l2,-1l1,-13l1,-23z" fill="#777675"></path><path transform="translate(1323,1706)" d="M0,0l14,1l47,9l27,7l24,9l21,10l9,7l5,6l3,7v10l-6,10l-4,3l-3,-3l1,-14l-2,-6l-12,-15l-3,-2v-2l-7,-2v-2l-5,-1l-7,-3l-15,-5l-10,-4l-20,-5l-19,-4l-18,-4l-4,-2l-10,-2l-6,-2z" fill="#fdfdfd"></path><path transform="translate(928,1440)" d="M0,0h141l17,1l44,1l23,1v1l-22,1h-197l-21,2l-10,2l-2,23l-1,4l-5,-10v-11l-1,-11l4,-2l18,-1z" fill="#966737"></path><path transform="translate(704,972)" d="M0,0h73l13,5l1,-3l3,-1l24,-1h22l-4,3l-7,1l-21,1h-5l-1,7h2l6,7l4,2l2,5l-3,1l-12,-5l-5,-4l-3,-1l-1,-2l-7,-4v-2h-2v-2h-2v-2l-7,-2h-69v57l1,44l8,1l1,2l-10,-1l-2,-1v-104z" fill="#72675f"></path><path transform="translate(733,280)" d="M0,0h10l11,3l14,6h4l3,6v5l-1,1l-10,1l-14,-6l-4,-1h-10l-16,3h-5l-4,-5l1,-4l10,-6l5,-2z" fill="#3f3d3c"></path><path transform="translate(739,321)" d="M0,0l8,1l7,5l3,5v11l-4,6l-6,4h-12l-6,-4l-3,-5v-12l3,-7l5,-3z" fill="#403e3d"></path><path transform="translate(840,967)" d="M0,0h1v5l-12,1h-20l-15,1l-3,1l-1,2l-6,-1l-7,-3h-73v104l2,3l7,2v3h2v2h-13l-1,-1l-1,-9v-101l3,-5l1,-1l42,-1h39l43,-1z" fill="#3f3d3c"></path><path transform="translate(610,280)" d="M0,0h18l16,5l2,2v6l-3,3l-11,-1l-5,-1h-14l-9,2l-12,6h-5l-4,-5l2,-5l4,-4l8,-4z" fill="#3f3d3c"></path><path transform="translate(610,321)" d="M0,0h9l8,5l3,6v10l-3,5l-4,3l-3,1h-11l-7,-4l-3,-6v-7l4,-9z" fill="#42403f"></path><path transform="translate(564,324)" d="M0,0h2v4l4,2v7l-2,9l-1,13l-4,11l-1,2l-4,-2l-7,-8l-4,-10v-13l3,-6l7,-6z" fill="#966838"></path><path transform="translate(750,1093)" d="M0,0h1v55l-1,104v19l-2,45l-1,18l-1,31l-2,29l-2,14h-2v-14l2,-31l1,-11v-8l1,-6l1,-37l1,-17v-59l2,-47l1,-82z" fill="#776a60"></path><path transform="translate(499,1618)" d="M0,0h7l-4,2l-7,2l-1,1l-13,-1l-1,3l-8,3l-20,3l-16,5l-18,5l-23,6l-8,3l-4,2h-4v2l-15,6l-5,5l-5,-1l5,-5l16,-10l16,-7l24,-8l30,-7l41,-7z" fill="#fdfdfd"></path><path transform="translate(827,1191)" d="M0,0h1v7l-3,3l-17,8l-14,9h-2v2l-6,4l-6,7h-2l-2,5l-6,8l-6,17l-2,11v14l4,15l8,17l11,19l7,11l6,11l7,10l1,5l-2,7h-1l-2,-9l-28,-48l-8,-16l-5,-12l-2,-11v-15l4,-17l7,-14l9,-12l9,-9l11,-8l19,-10l9,-4z" fill="#a7a8a8"></path><path transform="translate(679,653)" d="M0,0h1l2,19v49l-1,37l-2,16l-2,3l-1,-2l-1,-18l1,-82l1,-17z" fill="#b7790b"></path><path transform="translate(519,900)" d="M0,0l11,7l6,4l7,8l3,4v11l-1,7l3,5l1,14l-1,1v55l7,-1l1,-2l1,-42l1,-22h2l-1,66l-4,3h-7l-2,-4l-1,-65h-10l-2,-1v-9l2,-6l7,-4l-1,-7l-6,-7l-11,-8l-7,-4l2,-1z" fill="#787775"></path><path transform="translate(1087,979)" d="M0,0h31l61,1h39l27,2v1l-166,1l-9,-1v-1l8,-2h7z" fill="#90714f"></path><path transform="translate(893,1632)" d="M0,0l10,2l24,8l18,8l15,8l5,5l6,8l1,3v9l-3,4l-3,-15l-4,-3l-1,-3l-14,-8v-2l-4,-1l-8,-4l-36,-12l-3,-2v-2h-2z" fill="#fcfcfc"></path><path transform="translate(699,976)" d="M0,0l2,1v100l1,9v23l-2,-3l-2,-13l-2,-12v-18l-1,-21l1,-12l1,-5l-1,-8l2,-7v-20l-2,-3v-10z" fill="#403129"></path><path transform="translate(650,376)" d="M0,0l38,2l15,-2l5,1v4l-4,4l-5,1h-41l-9,-3l-2,-2v-4z" fill="#83572e"></path><path transform="translate(1223,1028)" d="M0,0h3l1,4l-18,1h-106l-26,-1v-1h10l1,-2l76,1z" fill="#a7a8a8"></path><path transform="translate(700,1600)" d="M0,0h1v14l2,9l9,21l12,18l9,10l2,1v2l5,2l4,3l15,7l14,4l24,2l20,-2l15,-5l4,-1l-3,3l-11,4l-15,3l-13,1l-20,-1l-1,-1l-9,-2l-14,-5l-5,-2v-2l-4,-1l-5,-3v-2l-4,-2l-10,-11l-11,-16l-8,-15l-5,-16v-12z" fill="#a1743e"></path><path transform="translate(1093,983)" d="M0,0h140v1h-8v3h-19l-44,-1h-74l-1,-2z" fill="#a5a6a6"></path><path transform="translate(553,927)" d="M0,0l4,2v8l-3,9v31l-1,22h-3l-1,-5l-1,-36l-1,-12v-16l2,-2z" fill="#a6a7a7"></path><path transform="translate(562,947)" d="M0,0l3,1l1,3v66h-1l-1,-67h-2l-1,66l-3,3l-7,2l-5,-2l-2,-9v-31l1,-28l-8,2l-3,1l2,-6h9l1,1l1,65l1,3h7l3,-2l1,-63z" fill="#3f3d3c"></path><path transform="translate(579,946)" d="M0,0h242v1l-155,1h-86l-1,3l-1,65l-5,2l2,-4l1,-11l1,-55z" fill="#5f5f5e"></path><path transform="translate(562,950)" d="M0,0h2l1,8l1,61l12,-1l2,-1l-1,3h-2v3h-7l-5,1l-16,-1v-1h7l2,-4h2l1,-64z" fill="#3f3028"></path><path transform="translate(735,1186)" d="M0,0h1l1,16l2,4v2l1,5v36l1,2l-1,9v14l-3,11h-2z" fill="#7b7168"></path><path transform="translate(642,537)" d="M0,0l6,4l4,1v2l6,2l7,7l3,6l-3,7l-14,-7l-5,-6l-3,-2l-1,-3h-3z" fill="#c9c8c8"></path><path transform="translate(816,1278)" d="M0,0h2v11l-3,19l-1,13l-5,-1l-3,-5l-1,-5v-10l4,-15l5,-6z" fill="#a7a8a8"></path><path transform="translate(1226,1493)" d="M0,0h10l1,1l12,1v1h-23v3l-30,-1l-8,-1h-101l-8,-1v-1l95,-1z" fill="#a7a8a8"></path><path transform="translate(734,223)" d="M0,0h15l8,4l7,8l1,4h2l4,15l4,28v13l-3,-3l-4,-36l-3,-12l-6,-12l-8,-6l-10,-1l-12,2l-17,7l-15,4l-6,1h-13l-12,-2l-10,-4l3,-1l14,4h20l14,-4l16,-5z" fill="#3f322a"></path><path transform="translate(1000,809)" d="M0,0l3,1l-3,11l-4,5l-5,-1l-6,-7l-7,-1l-4,1l-2,8l1,11l-4,3l-16,4l-14,7l-7,4v-3l8,-6l10,-5l18,-5v-10l3,-8l6,-5h6l8,5l4,2l4,-8z" fill="#787675"></path><path transform="translate(516,1145)" d="M0,0h66l36,1l15,1v1h-11l1,6l-1,3l-5,-2l-1,-3l-18,-3h-70l-12,-1z" fill="#42403e"></path><path transform="translate(571,925)" d="M0,0h4l1,2v13l-2,7l-1,26l-1,8l-3,1l-1,-7l-1,-33l1,-13z" fill="#a7a8a8"></path><path transform="translate(821,348)" d="M0,0l2,1l-1,5l-2,9l-4,3l-8,3l-8,-1l-3,-5l2,-4h2l1,-4l7,-4h5l4,3v-2h2z" fill="#83572e"></path><path transform="translate(777,469)" d="M0,0l2,3l-9,13l-9,11l-13,10l-3,1l-3,-3l4,-2v-3l-3,-1h3l4,-8h-5l4,-4l3,1l2,4l4,-2l1,-3l5,-4h2v-2l4,-1l1,-4l3,-1z" fill="#786b61"></path><path transform="translate(774,300)" d="M0,0l3,3l5,15v3h2l2,10l-2,8l4,-1l6,-8h2l1,-5l4,-4l1,2l-6,10l-5,10l-3,5h-2v2h-2l-3,-8l-6,-35l-1,-3l-9,-2v-1z" fill="#382e29"></path><path transform="translate(713,1570)" d="M0,0l3,1l4,6l8,6l7,3h15l10,-6l6,-3l3,6l-7,1l-9,7l-2,1h-12l-10,-3l-10,-7l-7,-5l-3,-2z" fill="#996c3c"></path><path transform="translate(603,1152)" d="M0,0h1l1,17l1,33l1,30l2,38l4,45l1,6l1,25l-2,-1l-6,-69l-2,-41l-2,-48z" fill="#776a60"></path><path transform="translate(489,898)" d="M0,0l5,1v10l4,11l-1,4l-4,2l-8,2l-3,2l1,7l7,6l2,3l-1,5l-13,4l-1,-2l10,-4l-1,-4l-8,-10l1,-7l9,-6l1,-2z" fill="#787674"></path><path transform="translate(611,278)" d="M0,0h16l16,4l6,5v6l-3,5l-4,1l-15,-3h-17l-11,4l-5,3h-8l-4,-5l1,-3l4,6l7,-1l13,-6l6,-1h14l10,2h6l2,-2v-6l-9,-4l-8,-2h-18l-16,5l-6,4h-2l-1,3l-1,-3l11,-7l7,-3z" fill="#83572e"></path><path transform="translate(563,380)" d="M0,0h2l3,7l1,8l2,10v15l-3,9l-4,1l-1,-20z" fill="#7c7168"></path><path transform="translate(570,1607)" d="M0,0l2,1l-12,11l-21,14l-15,9l-11,7l-10,6l-12,6l-8,6v5l4,5l4,4l-5,-2l-5,-6l-1,-5l7,-8l21,-12l11,-6l9,-6l11,-6l12,-8l13,-10l3,-3z" fill="#a1743e"></path><path transform="translate(600,1582)" d="M0,0l9,2l13,3h14l13,-3l6,-2l3,6h-10l-8,3l-6,1h-13l-14,-4l-10,-2z" fill="#966737"></path><path transform="translate(532,1018)" d="M0,0l8,1l7,3l-3,1h-9l-3,2l-4,17l-1,21l-1,14h-1l-1,-11v-32l5,-14z" fill="#352d28"></path><path transform="translate(562,1611)" d="M0,0l3,1l-11,9l-15,10l-14,8l-14,9l-10,5h-2l2,-4l10,-6l9,-6l10,-5l21,-13z" fill="#bfbfbf"></path><path transform="translate(352,1665)" d="M0,0l2,2l-2,7l-1,5h2l10,19v4l-7,-4l-7,-8l-2,-5l-1,-8l3,-8z" fill="#fdfdfd"></path><path transform="translate(786,1610)" d="M0,0l5,4l3,7l9,12l14,15l17,17l7,6l2,4v5l-5,5l-2,-1l4,-4l-1,-6l-5,-6l-4,-3v-2l-4,-2l-19,-19l-7,-8l-10,-13l-4,-8z" fill="#a17541"></path><path transform="translate(623,428)" d="M0,0l2,3l7,12l7,6l11,5v1h-6l-3,-2h-6l-3,-2v2l3,1l-4,1l-7,-8l-2,-10l-2,-3z" fill="#786c63"></path><path transform="translate(546,949)" d="M0,0h1l1,67l7,-1l1,-2l1,-42l1,-22h2l-1,66l-4,3h-7l-2,-4z" fill="#76695f"></path><path transform="translate(711,487)" d="M0,0h2v4l9,-3l-1,3l8,-1l-4,4l-5,3l9,-3l-1,3l-9,3l-1,3l-2,-1v-2l-8,1l4,-4l-8,1v-2h-3l-3,-1l11,-6z" fill="#77695f"></path><path transform="translate(646,526)" d="M0,0l1,3l3,1v2l5,1l17,9l3,1l7,1l1,-2l7,-3h3l1,-2l4,1l-9,4h-2l-2,6l-2,3l-7,1l-4,-3l-1,-6l-7,-1l-11,-6l-7,-5z" fill="#787675"></path><path transform="translate(660,1594)" d="M0,0l2,3l1,2l1,15l2,12v5l-5,6l-17,11l-17,8l-10,5l-3,-1l16,-8l17,-9l11,-7l4,-5v-9l-2,-17z" fill="#a17642"></path><path transform="translate(642,1569)" d="M0,0l2,4l1,7l5,-3l4,-3v8l-5,3l-13,3h-14l-9,-2l3,-2l18,1l5,-1l2,-14z" fill="#776a60"></path><path transform="translate(647,516)" d="M0,0l4,1l3,8l1,5l4,2l7,3l1,2l5,2l10,3v2h-9l-4,-3l-14,-7l-5,-2l-3,-3z" fill="#976838"></path><path transform="translate(886,1423)" d="M0,0h1v8h2l3,22v6l-2,-1l-2,4l-5,-3v-2h2l1,-4v-8l-2,-3l-2,-6l-5,-8l1,-2l6,7v2h2z" fill="#aaabab"></path><path transform="translate(566,237)" d="M0,0h1v86l6,-1l2,-5l1,-17h1v22l-1,7l-4,1l-6,-5z" fill="#5e5753"></path><path transform="translate(918,1175)" d="M0,0h1v27l-1,25l-1,8h-1v-5l-3,-1l2,-22l1,-26l-1,-2l2,-1z" fill="#a8a9a9"></path><path transform="translate(990,802)" d="M0,0l5,1l6,5l-4,11l-3,2l-6,-5l-1,-8l-1,-2l5,-1z" fill="#2ea9b0"></path><path transform="translate(533,948)" d="M0,0l3,1l-4,10v9l-3,5l-2,10l-8,6l-3,1v-3l7,-6l1,-2l1,-9l3,-5l-1,-8z" fill="#82572e"></path><path transform="translate(805,231)" d="M0,0h1v18l-2,41h-1l-1,-26l-1,-13v-11l2,-7z" fill="#3b3430"></path><path transform="translate(579,951)" d="M0,0h1v66l-2,2l-9,1l-3,-1v-2h9l2,-1l1,-64z" fill="#3f3d3c"></path><path transform="translate(581,230)" d="M0,0h1v16l-3,66l-1,14l-2,6l-5,-1l-5,-3l1,-3l5,4h3l1,-7l4,-77z" fill="#82572e"></path><path transform="translate(615,319)" d="M0,0l12,4l4,7l1,2v10l-3,5l-4,4l-11,2l-5,-1v-1l11,-1l6,-3l3,-5v-10l-3,-6l-7,-4h-9l-7,4l-3,8l-1,7h-1v-11l3,-6l8,-4z" fill="#83572e"></path><path transform="translate(562,950)" d="M0,0h2l1,8v53h-1l-1,-35l-1,11h-1v-33z" fill="#3f3028"></path><path transform="translate(765,1577)" d="M0,0l3,3v2h-6l-3,1v2l-9,5h-14l-12,-6l-3,-3l1,-2l10,6l3,1h15l10,-6z" fill="#a1743e"></path><path transform="translate(577,286)" d="M0,0h1v14h-2v17l-3,6l-3,1l-3,-1v-7l5,-1l1,-8l2,-8v-7z" fill="#352d28"></path><path transform="translate(861,1625)" d="M0,0l10,1l21,5v2l-6,1h-8l-14,-5l-3,-2z" fill="#fdfdfd"></path><path transform="translate(794,973)" d="M0,0h14v1l-13,2l1,6h2l2,5l-6,-1l-5,-3l-5,-5l-3,-2l1,-2l8,3l1,-3z" fill="#5f5f5e"></path><path transform="translate(639,107)" d="M0,0l7,1v3h5l4,-1l-2,1l1,3l-1,2l-18,-2h-4l2,-5z" fill="#2f2d2c"></path><path transform="translate(774,300)" d="M0,0l3,3l5,31l2,10h5l-1,4h-2v2h-2l-3,-8l-6,-35l-1,-3l-9,-2v-1z" fill="#3f332c"></path><path transform="translate(1188,1495)" d="M0,0h37l1,4l-30,-1l-8,-1z" fill="#a7a8a8"></path><path transform="translate(1446,1445)" d="M0,0l1,2l-3,4l-1,4h-3l-2,5l-2,9l-3,2l5,1l-3,3l-4,2l-3,-1l4,-10l3,-8z" fill="#aaaaaa"></path><path transform="translate(739,320)" d="M0,0h7l7,4l6,8v11l-4,6l-6,5l-3,1h-9l-2,-2l12,-1l7,-5l2,-4v-11l-3,-5l-6,-4l-8,-2z" fill="#83572e"></path><path transform="translate(766,1074)" d="M0,0h15l-1,4l-7,4l-2,-1l4,-2v-3l-33,3h-26v-1l15,-1l22,-1z" fill="#776a60"></path><path transform="translate(719,410)" d="M0,0l4,1l9,6l2,1l1,4h-3l-1,2l-7,-1l-2,-7l-6,-1l3,-2z" fill="#786c63"></path><path transform="translate(1198,980)" d="M0,0h20l27,2v1h-48z" fill="#9c6f3b"></path><path transform="translate(702,407)" d="M0,0l13,1h2l-1,5l-3,1l-17,-1l3,-5z" fill="#796b60"></path><path transform="translate(1031,813)" d="M0,0l6,1l5,5l1,6l-5,-2l-8,-4h-4l2,-4z" fill="#a17540"></path><path transform="translate(1402,1178)" d="M0,0h4l-1,3l1,28v15l-2,-1l-1,-10z" fill="#a7a8a8"></path><path transform="translate(563,975)" d="M0,0h1v37l-2,1l-1,-5v-21l1,-11z" fill="#352c27"></path><path transform="translate(830,1619)" d="M0,0l21,3l10,2l-3,3l-18,-2l-9,-4z" fill="#fdfdfd"></path><path transform="translate(1431,1454)" d="M0,0h2l-2,9l-4,9l-3,6l-2,-1l1,-7l5,-12z" fill="#967e62"></path><path transform="translate(778,308)" d="M0,0l2,3l2,10h2l2,10l-3,8h-1l-4,-25z" fill="#352d28"></path><path transform="translate(570,1607)" d="M0,0l2,1l-12,11l-27,18l-2,-1l6,-5l14,-9l13,-10l3,-3z" fill="#a1743e"></path><path transform="translate(600,1582)" d="M0,0l9,2l13,3h14l8,-1l-3,2l-5,2h-15l-20,-5l-2,-2z" fill="#a1743e"></path><path transform="translate(1226,1493)" d="M0,0h10l1,1l12,1v1h-24l-51,-1v-1z" fill="#93826d"></path><path transform="translate(577,948)" d="M0,0h1v68l-5,2l2,-4l1,-11z" fill="#776a60"></path><path transform="translate(531,1148)" d="M0,0h67v1l-60,1l-8,2l-1,-3z" fill="#605f5e"></path><path transform="translate(656,1637)" d="M0,0M-1,1v3l-13,8l-16,8l-9,4l-3,-1l16,-8l17,-9z" fill="#a1743e"></path><path transform="translate(614,503)" d="M0,0l10,1v5l1,2h-12l-1,-5l1,-2z" fill="#3f3d3c"></path><path transform="translate(814,1292)" d="M0,0h2l-1,16l-2,2h-2l-1,-2l1,-12z" fill="#7d7c7b"></path><path transform="translate(736,328)" d="M0,0h5l1,1v8l-2,2l-5,-1l-1,-2v-6z" fill="#d4d3d4"></path><path transform="translate(549,1610)" d="M0,0h5l1,3l-8,2h-8l-5,1l-7,-1l4,-2z" fill="#fcfcfc"></path><path transform="translate(608,327)" d="M0,0h6l2,2v5h-2v2l-5,1l-2,-3v-6z" fill="#d7d6d6"></path><path transform="translate(773,266)" d="M0,0l2,2l2,19l1,10v10l-2,-4l-2,-6v-15l-1,-6z" fill="#352d28"></path><path transform="translate(544,156)" d="M0,0l4,1v12l2,7v3l-4,-5l-1,-2v-7l-3,-1l1,-7z" fill="#362f2b"></path><path transform="translate(646,526)" d="M0,0l1,3l3,1v2l5,1l13,7l1,3l-5,-1l-11,-6l-7,-5z" fill="#939392"></path><path transform="translate(731,322)" d="M0,0l3,1l-5,2l-2,7v12l4,6l4,3l-5,-1l-5,-6l-1,-3v-11l3,-7z" fill="#83572e"></path><path transform="translate(647,516)" d="M0,0h3l1,12l1,3l4,1l6,4l-2,1l-6,-4l-4,-1l-3,-3z" fill="#9e7341"></path><path transform="translate(762,1581)" d="M0,0l7,1l-4,2l-4,1l-8,6l-2,1h-12v-2l11,-1l7,-4h2v-2z" fill="#966737"></path><path transform="translate(580,988)" d="M0,0l2,1v14l1,6l3,2v2h-2v2h-3l-1,2z" fill="#403129"></path><path transform="translate(664,174)" d="M0,0l5,1l6,2l7,1l2,3l-21,-3l-5,4l2,-4z" fill="#342c28"></path><path transform="translate(641,116)" d="M0,0l7,1l7,7v3l-4,-1l-5,-5l-5,-3z" fill="#6d6966"></path><path transform="translate(739,111)" d="M0,0h6v3l-4,4l-9,-1l4,-5z" fill="#2e2b2a"></path><path transform="translate(516,1640)" d="M0,0M-1,1M-4,2h3l-1,4l-13,7h-2l2,-4l10,-6z" fill="#bdbdbd"></path><path transform="translate(705,525)" d="M0,0l1,4l-1,3l-6,4l-13,6l-2,-1l3,-3l9,-4l6,-4z" fill="#966b3c"></path><path transform="translate(479,938)" d="M0,0l4,2l5,6l-1,4l-4,-2l-4,-4z" fill="#b7790b"></path><path transform="translate(732,496)" d="M0,0h8l-1,5l-5,1l-5,-2l-1,-2z" fill="#3f3d3c"></path><path transform="translate(1546,1211)" d="M0,0l9,6l5,5h-5l-7,-5z" fill="#e7e6e7"></path><path transform="translate(562,1611)" d="M0,0l3,1l-11,9l-3,2l-3,-1l8,-7z" fill="#c0c0c0"></path><path transform="translate(653,1582)" d="M0,0l3,1l2,5h-14l2,-3z" fill="#976938"></path><path transform="translate(1426,1463)" d="M0,0h2l-1,9l-3,6l-2,-1l1,-7z" fill="#9b7142"></path><path transform="translate(780,332)" d="M0,0l2,2l2,10h5l-1,4h-2v2h-2l-3,-8z" fill="#3f3530"></path><path transform="translate(560,1019)" d="M0,0l10,3l-1,2l-20,-1v-1l10,-2z" fill="#352d28"></path><path transform="translate(675,551)" d="M0,0h7l-1,6l-4,2l-3,-5z" fill="#b7790b"></path><path transform="translate(805,238)" d="M0,0h1v11l-1,19h-1l-1,-23z" fill="#5b5957"></path><path transform="translate(709,231)" d="M0,0l3,1l-1,2l-14,4h-4v-2l14,-4z" fill="#3c2f28"></path><path transform="translate(702,535)" d="M0,0l2,1l-7,5l-9,4l-2,-1l3,-3z" fill="#a7a8a8"></path><path transform="translate(709,517)" d="M0,0h1v13l-6,5l-6,2l5,-5l5,-4z" fill="#7a7978"></path><path transform="translate(548,1621)" d="M0,0M-2,1l4,2l-11,7h-2l2,-4z" fill="#bebebe"></path><path transform="translate(745,111)" d="M0,0l5,1v6h-8v-2h2z" fill="#3c3632"></path><path transform="translate(1432,1469)" d="M0,0l1,2l5,1l-3,3l-4,2l-3,-1z" fill="#a6a7a7"></path><path transform="translate(533,939)" d="M0,0l2,4v2l9,1l1,2l-10,1l-2,-1z" fill="#6b625b"></path><path transform="translate(637,470)" d="M0,0h5l2,4l-3,3l-3,-1z" fill="#776a60"></path><path transform="translate(645,106)" d="M0,0l7,1v4l-4,1l-2,-1v-3l-2,-1z" fill="#3f3a37"></path><path transform="translate(1446,1445)" d="M0,0l1,2l-3,4l-1,4l-6,2l2,-4z" fill="#abacac"></path><path transform="translate(577,1000)" d="M0,0h1v13l-5,2l2,-4l1,-10z" fill="#71675f"></path><path transform="translate(577,286)" d="M0,0h1v14h-2l-1,3v-11z" fill="#392f29"></path><path transform="translate(652,110)" d="M0,0l3,1h-2l1,3l-1,2l-7,-1l1,-4z" fill="#352d28"></path><path transform="translate(570,1607)" d="M0,0l2,1l-12,11l-2,-1l7,-8z" fill="#aa7a49"></path><path transform="translate(682,542)" d="M0,0l1,3l-3,3l-5,-1l-1,-4l8,1z" fill="#776454"></path><path transform="translate(629,465)" d="M0,0l4,1l-1,6l-5,-2v-4z" fill="#776a60"></path><path transform="translate(746,127)" d="M0,0l6,2l4,4l-7,-1l-4,-3z" fill="#5f5f5e"></path><path transform="translate(808,1616)" d="M0,0l18,2l-4,2h-7l-7,-3z" fill="#fdfdfd"></path><path transform="translate(588,996)" d="M0,0l1,2v3l2,1l1,4l-3,3l-2,-5v-7z" fill="#403129"></path><path transform="translate(735,327)" d="M0,0h6v1l-6,2v8l2,1l-4,-1l-1,-1v-6z" fill="#726d69"></path><path transform="translate(652,1579)" d="M0,0h2l-1,4l-8,3h-2l1,-3l7,-3z" fill="#796453"></path><path transform="translate(769,246)" d="M0,0l4,5v10l-2,-2z" fill="#352d28"></path><path transform="translate(652,1561)" d="M0,0h1l1,12h-2l-2,-4l1,-5z" fill="#7a716b"></path><path transform="translate(546,1012)" d="M0,0l2,1v3l7,-1l4,-2l-2,4l-2,1h-7z" fill="#6f665f"></path><path transform="translate(566,319)" d="M0,0h1l2,6l5,3l1,-3l1,4l-4,1l-6,-5z" fill="#403e3d"></path><path transform="translate(748,424)" d="M0,0h5l1,3l-1,2l-5,-1z" fill="#776a60"></path></g></g></svg>