<svg version="1.1" xmlns="http://www.w3.org/2000/svg" xmlns:xlink="http://www.w3.org/1999/xlink" width="247" height="247" viewBox="0,0,256,256"><g fill="#f39c12" fill-rule="nonzero" stroke="none" stroke-width="1" stroke-linecap="butt" stroke-linejoin="miter" stroke-miterlimit="10" stroke-dasharray="" stroke-dashoffset="0" font-family="none" font-weight="none" font-size="none" text-anchor="none" style="mix-blend-mode: normal"><g transform="translate(0,3.23887) scale(0.25911,0.25911)"><path transform="translate(467,0)" d="M0,0h53l1,1l44,4l28,5l26,6l27,8l21,7l24,10l30,14l23,13l18,11l12,8l14,10l14,11l11,9l26,24l13,13l7,8l9,9l9,11l12,15l16,23l13,21l14,25l11,22l10,24l9,25l8,25l9,39l4,24l3,39l2,8v46l-2,9l-3,35l-6,33l-6,25l-9,30l-11,31l-14,31l-10,19l-10,18l-11,17l-11,16l-10,13l-13,16l-18,20l-32,32l-8,7l-12,10l-16,12l-17,12l-17,11l-22,13l-32,16l-23,10l-19,7l-12,2l-13,-1l-8,-7l-4,-4l-1,-10v-136l-1,-23l-3,-14l-2,-11l-7,-17l-9,-15l-6,-7v-2l-4,-2v-2l4,-1l18,-2l23,-4l26,-7l20,-7l17,-7l21,-11l16,-11l14,-12l3,-3h2l2,-4l12,-13l12,-18l13,-25l8,-22l6,-24l4,-19l2,-20l2,-14v-26l-4,-30l-5,-21l-7,-20l-8,-16l-8,-14l-10,-14l-9,-10l-1,-3l4,-9l4,-13l1,-11v-39l-1,-15l-7,-26l-4,-12l-2,-7l-19,1l-24,5l-25,9l-20,9l-18,10l-25,16l-5,3l-14,-4l-23,-5l-15,-3l-34,-4l-13,-1h-48l-47,5l-15,3l-14,3l-16,4l-7,2l-15,-10l-22,-13l-16,-8l-17,-8l-26,-9l-17,-4h-21l-2,1l-5,14l-5,17l-5,26l-1,10v14l2,16l3,17l3,7l1,5v7l-4,6l-11,14l-8,13l-9,17l-8,21l-6,25l-2,9v58l6,39l5,21l8,23l8,18l10,17l12,16l9,10l12,12l18,13l22,12l17,8l11,4l24,8l14,3l9,2l13,2l10,2l13,1l2,1l-2,4l-3,1l-2,4l-5,5l-7,14l-5,11l-8,28l-3,2l-9,1l-4,3l-25,5h-29l-7,-3h-5l-11,-5l-12,-6l-11,-8l-14,-14l-11,-15l-10,-14l-9,-10l-11,-11l-9,-6l-15,-8l-13,-4h-19l-10,4l-3,2l1,9l4,5l11,9l9,6l10,9l9,9l10,14l12,21l9,19l8,16l9,11l8,8l10,7l17,8l8,3l10,2l5,2l11,1h43l20,-1l9,-3l5,1l2,34l1,31v19l-1,12l-5,10l-8,7l-3,1h-18l-8,-2l-28,-11l-28,-13l-26,-14l-26,-16l-28,-20l-8,-7l-13,-10l-7,-7l-8,-7l-32,-32l-7,-8l-11,-13l-13,-17l-12,-17l-13,-21l-11,-19l-16,-32l-13,-33l-8,-24l-8,-28l-4,-18l-6,-36l-2,-33l-2,-7v-48l2,-11l3,-35l6,-32l5,-22l8,-27l9,-26l11,-26l10,-21l12,-22l14,-23l7,-10l13,-18l12,-15l9,-11l12,-12l7,-8l15,-15l8,-7l8,-8l14,-11l15,-12l19,-13l22,-14l25,-14l29,-14l19,-8l22,-8l13,-4l8,-2l4,-2l13,-3l8,-2l9,-1l7,-3l18,-2l6,-2l38,-3z"></path></g></g></svg>