<svg xmlns="http://www.w3.org/2000/svg" xmlns:xlink="http://www.w3.org/1999/xlink" version="1.1" width="1000" height="1000" viewBox="0 0 1000 1000" xml:space="preserve">
<desc>Created with Fabric.js 3.5.0</desc>
<defs>
</defs>
<rect x="0" y="0" width="100%" height="100%" fill="#ffffff"/>
<g transform="matrix(0.6219 0 0 0.6219 500.5076 499.8857)" id="142326">
<path style="stroke: none; stroke-width: 1; stroke-dasharray: none; stroke-linecap: butt; stroke-dashoffset: 0; stroke-linejoin: miter; stroke-miterlimit: 4; is-custom-font: none; font-file-url: none; fill: rgb(255,215,0); fill-rule: nonzero; opacity: 1;" vector-effect="non-scaling-stroke" transform=" translate(-33, -803)" d="m 0 0 h 69 l 43 3 l 34 4 l 38 6 l 37 8 l 30 8 l 27 8 l 29 10 l 33 13 l 27 12 l 29 14 l 28 15 l 28 17 l 16 10 l 12 8 l 17 12 l 19 14 l 25 20 l 14 12 l 11 9 l 9 9 l 8 7 l 36 36 l 7 8 l 11 12 l 9 11 l 11 13 l 11 14 l 12 16 l 13 18 l 10 15 l 11 17 l 12 20 l 12 21 l 17 32 l 13 28 l 12 28 l 13 35 l 11 33 l 11 41 l 8 36 l 7 43 l 4 34 l 2 24 l 1 20 v 59 l -2 35 l -4 38 l -4 27 l -7 38 l -9 37 l -10 35 l -10 30 l -15 39 l -13 29 l -10 22 l -10 19 l -15 27 l -17 28 l -19 28 l -10 14 l -14 19 l -9 11 l -13 16 l -10 11 l -7 8 l -11 12 l -3 4 h -2 l -2 4 l -8 8 h -2 v 2 h -2 v 2 h -2 v 2 h -2 v 2 l -8 7 l -9 9 l -8 7 l -11 10 l -11 9 l -17 14 l -19 14 l -18 13 l -27 18 l -27 16 l -21 12 l -35 18 l -43 19 l -29 11 l -36 12 l -27 8 l -40 10 l -42 8 l -35 5 l -40 4 l -33 2 h -58 l -45 -3 l -43 -5 l -35 -6 l -37 -8 l -31 -8 l -30 -9 l -29 -10 l -33 -13 l -29 -13 l -33 -16 l -23 -13 l -14 -8 l -24 -15 l -12 -8 l -23 -16 l -30 -23 l -14 -12 l -11 -9 l -16 -15 l -8 -7 l -12 -12 l -4 -3 v -2 l -3 -1 l -7 -8 l -12 -12 l -7 -8 l -11 -12 l -9 -11 l -11 -13 l -10 -13 l -14 -19 l -13 -18 l -15 -23 l -14 -23 l -13 -23 l -12 -23 l -8 -16 l -13 -28 l -14 -35 l -12 -34 l -11 -37 l -9 -37 l -7 -36 l -6 -41 l -4 -43 l -1 -18 v -73 l 3 -42 l 5 -40 l 8 -45 l 9 -39 l 11 -38 l 12 -36 l 11 -28 l 12 -28 l 17 -35 l 14 -26 l 16 -27 l 16 -25 l 14 -20 l 13 -18 l 11 -14 l 14 -17 l 9 -11 l 12 -13 l 7 -8 l 11 -12 l 26 -26 h 2 v -2 l 8 -7 l 11 -10 l 8 -7 l 14 -12 l 13 -10 l 10 -8 l 36 -26 l 23 -15 l 25 -15 l 25 -14 l 23 -12 l 30 -14 l 39 -16 l 47 -16 l 36 -10 l 39 -9 l 38 -7 l 38 -5 l 35 -3 z m 157 518 l -14 2 l -12 5 l -10 6 l -12 11 l -8 13 l -5 13 l -1 5 v 19 l 3 10 l 6 11 l 11 13 l 23 23 l 1 2 h 2 l 2 4 h 2 l 2 4 l 37 37 l 7 8 l 29 29 l 1 3 h -530 l -15 3 l -14 7 l -10 8 l -9 10 l -6 10 l -5 14 l -2 12 l 1 16 l 4 13 l 6 12 l 11 13 l 11 8 l 15 7 l 10 2 l 11 1 h 520 l -5 5 l -1 3 h -2 l -7 8 l -102 102 l -8 13 l -4 12 l -1 7 v 8 l 3 14 l 4 9 l 6 10 l 9 10 l 13 9 l 12 5 l 10 2 h 16 l 12 -4 l 12 -7 l 13 -12 l 222 -222 l 7 -10 l 5 -12 l 2 -8 v -20 l -4 -14 l -6 -11 l -9 -11 l -28 -28 l -1 -2 h -2 v -2 h -2 v -2 h -2 l -2 -4 l -40 -40 l -7 -8 l -34 -34 l -5 -6 h -2 l -2 -4 l -25 -25 l -7 -8 l -33 -33 l -1 -2 h -2 l -2 -4 l -22 -22 l -11 -8 l -10 -5 l -7 -2 z" stroke-linecap="round"/>
</g>
</svg>